<?xml version="1.0" encoding="UTF-8"?>
<svg id="Capa_2" data-name="Capa 2" xmlns="http://www.w3.org/2000/svg" xmlns:xlink="http://www.w3.org/1999/xlink" viewBox="0 0 113.65 43.88">
  <defs>
    <style>
      .cls-1 {
        fill: none;
      }

      .cls-2 {
        clip-path: url(#clippath-1);
      }

      .cls-3 {
        clip-path: url(#clippath-3);
      }

      .cls-4 {
        clip-path: url(#clippath-4);
      }

      .cls-5 {
        clip-path: url(#clippath-2);
      }

      .cls-6 {
        fill: #fff;
      }

      .cls-7 {
        clip-path: url(#clippath);
      }
    </style>
    <clipPath id="clippath">
      <rect class="cls-1" width="113.65" height="43.88"/>
    </clipPath>
    <clipPath id="clippath-1">
      <rect class="cls-1" width="113.65" height="43.88"/>
    </clipPath>
    <clipPath id="clippath-2">
      <rect class="cls-1" width="113.65" height="43.88"/>
    </clipPath>
    <clipPath id="clippath-3">
      <rect class="cls-1" width="113.65" height="43.88"/>
    </clipPath>
    <clipPath id="clippath-4">
      <rect class="cls-1" width="113.65" height="43.88"/>
    </clipPath>
  </defs>
  <g id="Capa_1-2" data-name="Capa 1">
    <g>
      <rect class="cls-6" x=".3" y="39.43" width="1.03" height="4.36"/>
      <g class="cls-7">
        <path class="cls-6" d="M3.98,40.38c-.47,0-.8.24-.97.69h-.02v-.63h-.95v3.36h.99v-1.9c0-.39.21-.65.53-.65s.51.23.51.63v1.92h.99v-2.15c0-.8-.39-1.27-1.08-1.27"/>
        <path class="cls-6" d="M6.93,39.69h-.99v.75h-.41v.8h.41v1.66c0,.66.31.93,1.11.93.19,0,.34-.02.43-.05v-.76s-.12.01-.21.01c-.24,0-.36-.12-.36-.35v-1.44h.56v-.8h-.56v-.75h.01Z"/>
        <path class="cls-6" d="M8.93,41.74c.02-.36.27-.62.58-.62s.56.24.58.62h-1.16ZM9.5,40.37c-.94,0-1.54.69-1.54,1.78s.59,1.74,1.57,1.74c.8,0,1.38-.45,1.48-1.14h-.89c-.07.23-.29.37-.57.37-.37,0-.63-.28-.63-.69v-.07h2.1v-.3c0-1.03-.59-1.68-1.52-1.68h0Z"/>
        <path class="cls-6" d="M12.55,41.07h-.02v-.63h-.95v3.36h.99v-1.78c0-.47.23-.74.65-.74.12,0,.24.02.33.06v-.92c-.07-.02-.16-.05-.25-.05-.36,0-.62.23-.74.68h0Z"/>
        <path class="cls-6" d="M15.95,40.38c-.47,0-.8.24-.97.69h-.02v-.63h-.95v3.36h.99v-1.9c0-.39.21-.65.53-.65s.51.23.51.63v1.92h.99v-2.15c0-.8-.39-1.27-1.08-1.27Z"/>
        <path class="cls-6" d="M19.52,42.59c0,.3-.27.52-.59.52-.25,0-.42-.13-.42-.35s.16-.34.44-.36l.57-.05v.23h.01ZM19.11,40.37c-.83,0-1.39.45-1.41,1.14h.89c.02-.21.21-.36.47-.36s.46.14.46.42v.19l-.73.05c-.81.05-1.26.4-1.26,1.03s.47,1.02,1.05,1.02c.38,0,.75-.19.92-.53h.02v.48h.95v-2.31c0-.68-.54-1.14-1.38-1.14h0Z"/>
        <path class="cls-6" d="M22.38,39.69h-.99v.75h-.41v.8h.41v1.66c0,.66.31.93,1.11.93.19,0,.34-.02.44-.05v-.76s-.12.01-.2.01c-.24,0-.36-.12-.36-.35v-1.44h.56v-.8h-.56v-.75h.01Z"/>
        <path class="cls-6" d="M24.02,39.1c-.28,0-.51.23-.51.53s.23.53.51.53.51-.22.51-.53-.23-.53-.51-.53"/>
      </g>
      <rect class="cls-6" x="23.52" y="40.44" width=".99" height="3.36"/>
      <g class="cls-2">
        <path class="cls-6" d="M26.67,43.09c-.36,0-.58-.35-.58-.97s.22-.97.58-.97.58.36.58.97-.22.97-.58.97M26.67,40.37c-.97,0-1.58.67-1.58,1.75s.61,1.75,1.58,1.75,1.58-.64,1.58-1.75-.62-1.75-1.58-1.75"/>
        <path class="cls-6" d="M30.74,40.38c-.47,0-.8.24-.97.69h-.02v-.63h-.95v3.36h.99v-1.9c0-.39.21-.65.53-.65s.51.23.51.63v1.92h.99v-2.15c0-.8-.39-1.27-1.08-1.27"/>
        <path class="cls-6" d="M34.32,42.59c0,.3-.27.52-.59.52-.25,0-.42-.13-.42-.35s.16-.34.43-.36l.57-.05v.23h.01ZM33.91,40.37c-.83,0-1.39.45-1.41,1.14h.89c.02-.21.21-.36.47-.36s.46.14.46.42v.19l-.73.05c-.81.05-1.26.4-1.26,1.03s.47,1.02,1.05,1.02c.38,0,.75-.19.92-.53h.02v.48h.96v-2.31c0-.68-.54-1.14-1.38-1.14h0Z"/>
      </g>
      <rect class="cls-6" x="35.95" y="39.22" width=".99" height="4.58"/>
      <g class="cls-5">
        <path class="cls-6" d="M40.62,43.02h-.62v-1.12h.62c.42,0,.67.2.67.56s-.24.57-.65.57h-.01ZM40,40.23h.59c.34,0,.54.18.54.48s-.22.51-.59.51h-.54v-.99ZM41.34,41.5v-.02c.45-.07.79-.46.79-.94,0-.68-.48-1.09-1.27-1.09h-1.89v4.36h1.93c.86,0,1.4-.5,1.4-1.26,0-.58-.44-1.02-.98-1.05h.01Z"/>
        <path class="cls-6" d="M44.87,42.34c0,.39-.21.65-.52.65s-.52-.22-.52-.63v-1.92h-.99v2.16c0,.8.47,1.27,1.14,1.27.47,0,.76-.25.91-.69h.02v.64h.97v-3.36h-.99v1.9-.02Z"/>
        <path class="cls-6" d="M48.4,41.82l-.64-.14c-.24-.05-.36-.14-.36-.29,0-.18.17-.3.41-.3.29,0,.47.16.47.4h.91c0-.69-.53-1.13-1.37-1.13s-1.38.42-1.38,1.09c0,.51.33.86.93.99l.58.13c.25.06.34.13.34.28,0,.18-.17.29-.45.29-.3,0-.5-.14-.52-.4h-.96c.04.69.57,1.12,1.46,1.12s1.44-.45,1.44-1.14c0-.51-.27-.79-.88-.92h.01Z"/>
        <path class="cls-6" d="M50.31,39.1c-.28,0-.51.23-.51.53s.23.53.51.53.51-.22.51-.53-.23-.53-.51-.53"/>
      </g>
      <rect class="cls-6" x="49.82" y="40.44" width=".99" height="3.36"/>
      <g class="cls-3">
        <path class="cls-6" d="M53.41,40.38c-.47,0-.8.24-.97.69h-.02v-.63h-.96v3.36h.99v-1.9c0-.39.21-.65.53-.65s.51.23.51.63v1.92h.99v-2.15c0-.8-.39-1.27-1.08-1.27"/>
        <path class="cls-6" d="M56.01,41.74c.02-.36.27-.62.58-.62s.56.24.58.62h-1.16ZM56.58,40.37c-.94,0-1.54.69-1.54,1.78s.59,1.74,1.57,1.74c.8,0,1.38-.45,1.47-1.14h-.89c-.07.23-.29.37-.57.37-.37,0-.63-.28-.63-.69v-.07h2.1v-.3c0-1.03-.59-1.68-1.52-1.68h0Z"/>
        <path class="cls-6" d="M60.54,41.82l-.64-.14c-.24-.05-.36-.14-.36-.29,0-.18.17-.3.41-.3.29,0,.47.16.47.4h.91c0-.69-.53-1.13-1.37-1.13s-1.38.42-1.38,1.09c0,.51.33.86.93.99l.58.13c.25.06.34.13.34.28,0,.18-.17.29-.45.29-.3,0-.5-.14-.52-.4h-.96c.04.69.57,1.12,1.46,1.12s1.44-.45,1.44-1.14c0-.51-.27-.79-.88-.92h.01Z"/>
        <path class="cls-6" d="M63.84,41.82l-.64-.14c-.24-.05-.36-.14-.36-.29,0-.18.17-.3.41-.3.29,0,.47.16.47.4h.91c0-.69-.53-1.13-1.37-1.13s-1.38.42-1.38,1.09c0,.51.33.86.93.99l.58.13c.25.06.34.13.34.28,0,.18-.17.29-.45.29-.3,0-.5-.14-.52-.4h-.96c.04.69.57,1.12,1.46,1.12s1.44-.45,1.44-1.14c0-.51-.27-.79-.88-.92h.01Z"/>
        <path class="cls-6" d="M68.71,41.21l-.52-.11c-.42-.1-.6-.22-.6-.46,0-.27.24-.45.59-.45s.64.19.65.51h.94c0-.82-.6-1.35-1.61-1.35-.93,0-1.6.54-1.6,1.39,0,.66.39,1.1,1.12,1.26l.53.11c.46.11.63.22.63.46,0,.27-.25.46-.65.46s-.69-.2-.72-.5h-.97c0,.85.64,1.34,1.67,1.34s1.69-.56,1.69-1.43c0-.69-.36-1.08-1.15-1.24h-.01Z"/>
        <path class="cls-6" d="M71.93,43.06c-.36,0-.58-.33-.58-.94s.22-.94.58-.94c.3,0,.51.23.53.58h.91c-.02-.83-.59-1.39-1.46-1.39-.97,0-1.56.68-1.56,1.75s.61,1.75,1.57,1.75c.87,0,1.43-.52,1.45-1.37h-.91c-.04.35-.23.56-.53.56Z"/>
        <path class="cls-6" d="M75.88,40.38c-.47,0-.81.24-.97.69h-.02v-1.85h-.97v4.58h.99v-1.9c0-.39.19-.65.54-.65s.52.24.52.63v1.92h.99v-2.15c0-.8-.39-1.27-1.08-1.27h-.01Z"/>
        <path class="cls-6" d="M79.09,43.09c-.36,0-.58-.35-.58-.97s.22-.97.58-.97.58.36.58.97-.22.97-.58.97M79.09,40.37c-.97,0-1.58.67-1.58,1.75s.61,1.75,1.58,1.75,1.58-.64,1.58-1.75-.62-1.75-1.58-1.75"/>
        <path class="cls-6" d="M82.7,43.09c-.36,0-.58-.35-.58-.97s.22-.97.58-.97.58.36.58.97-.22.97-.58.97M82.7,40.37c-.97,0-1.58.67-1.58,1.75s.61,1.75,1.58,1.75,1.58-.64,1.58-1.75-.62-1.75-1.58-1.75"/>
      </g>
      <rect class="cls-6" x="84.86" y="39.22" width=".99" height="4.58"/>
      <g class="cls-4">
        <path class="cls-6" d="M24.08,29.23H7.43c-.5,0-.89-.4-.89-.89v-7.75c0-.49.4-.89.89-.89h13.43c.5,0,.9-.4.9-.9v-3.61c0-.5-.4-.9-.9-.9H7.43c-.5,0-.89-.4-.89-.89v-7.04c0-.5.4-.9.89-.9h16.11c.5,0,.9-.4.9-.89V.91c0-.5-.4-.9-.9-.9H.89C.4.01,0,.41,0,.91v32.88c0,.49.4.89.89.89h23.19c.5,0,.89-.4.89-.89v-3.66c0-.5-.4-.9-.89-.9Z"/>
        <path class="cls-6" d="M27.36,34.68h4.42c.49,0,.89-.4.89-.89V12.27c0-.91,1.2-1.23,1.67-.46l13.46,22.44c.16.27.45.43.77.43h4.87c.5,0,.9-.4.9-.89V.91c0-.49-.4-.89-.9-.89h-4.42c-.5,0-.9.4-.9.89v19.93c0,.91-1.2,1.23-1.67.46L33.97.45c-.16-.27-.45-.44-.77-.44h-5.84c-.5,0-.9.4-.9.89v32.88c0,.5.4.89.9.89Z"/>
        <path class="cls-6" d="M74.82,21.47h-6.9c-.6,0-1.04-.59-.85-1.17l3.47-10.47c.27-.82,1.43-.82,1.7,0l3.43,10.47c.19.58-.24,1.17-.85,1.17h-.01ZM75.08.59c-.13-.35-.46-.59-.85-.59h-5.45c-.38,0-.71.23-.83.58l-12.1,32.88c-.22.58.22,1.21.83,1.21h4.79c.38,0,.71-.24.85-.59l2.37-6.66c.12-.36.46-.59.85-.59h11.65c.38,0,.71.24.85.59l2.37,6.66c.12.36.46.59.85.59h5.05c.62,0,1.05-.62.85-1.21L75.11.58h-.02Z"/>
        <path class="cls-6" d="M112.74,29.23h-16.65c-.5,0-.89-.4-.89-.89v-7.75c0-.49.4-.89.89-.89h13.43c.5,0,.89-.4.89-.9v-3.61c0-.5-.4-.9-.89-.9h-13.43c-.5,0-.89-.4-.89-.89v-7.04c0-.5.4-.9.89-.9h16.11c.5,0,.9-.4.9-.89V.91c0-.5-.4-.9-.9-.9h-22.65c-.49,0-.89.4-.89.9v32.88c0,.49.4.89.89.89h23.19c.5,0,.89-.4.89-.89v-3.66c0-.5-.4-.9-.89-.9Z"/>
        <path class="cls-6" d="M89.19,40.09h23.94c.29,0,.52.23.52.52v2.62c0,.29-.23.52-.52.52h-23.94c-.29,0-.52-.23-.52-.52v-2.62c0-.29.23-.52.52-.52"/>
      </g>
    </g>
  </g>
</svg>